<?xml version="1.0" encoding="UTF-8"?>
<svg version="1.1" xmlns="http://www.w3.org/2000/svg" width="16" height="16">
<path d="M0 0 C5.28 0 10.56 0 16 0 C16 3.96 16 7.92 16 12 C10.72 12 5.44 12 0 12 C0 8.04 0 4.08 0 0 Z " fill="#439602" transform="translate(0,2)"/>
<path d="M0 0 C5.28 0 10.56 0 16 0 C16 1.98 16 3.96 16 6 C14.35 6 12.7 6 11 6 C11 5.34 11 4.68 11 4 C10.01 3.67 9.02 3.34 8 3 C7.67 3.99 7.34 4.98 7 6 C6.67 5.01 6.34 4.02 6 3 C5.67 3.99 5.34 4.98 5 6 C3.35 6 1.7 6 0 6 C0 4.02 0 2.04 0 0 Z " fill="#EBCFD3" transform="translate(0,2)"/>
<path d="M0 0 C0.66 0 1.32 0 2 0 C2.33 0.66 2.66 1.32 3 2 C3.33 1.34 3.66 0.68 4 0 C5.32 0.33 6.64 0.66 8 1 C7.67 1.66 7.34 2.32 7 3 C7.66 3 8.32 3 9 3 C9 4.32 9 5.64 9 7 C1 7 1 7 -1 6 C-1.33 5.01 -1.66 4.02 -2 3 C-1.01 3 -0.02 3 1 3 C0.67 2.01 0.34 1.02 0 0 Z " fill="#C0443A" transform="translate(4,5)"/>
</svg>
